<svg width="87" height="41" viewBox="0 0 87 41" fill="none" xmlns="http://www.w3.org/2000/svg">
<path d="M14.7737 40.1981C11.7306 40.1981 9.09652 39.5437 6.87147 38.2348C4.67914 36.8932 2.97764 35.0936 1.76695 32.8358C0.588983 30.578 0 28.0912 0 25.3754V24.3446H1.47246V25.3754C1.47246 27.8295 1.996 30.0709 3.04308 32.0996C4.12288 34.1283 5.64442 35.748 7.6077 36.9587C9.60369 38.1367 11.9923 38.7256 14.7737 38.7256C17.555 38.7256 19.9273 38.1367 21.8905 36.9587C23.8865 35.748 25.4081 34.1283 26.4552 32.0996C27.535 30.0709 28.0749 27.8295 28.0749 25.3754V0H29.5473V25.3754C29.5473 28.0912 28.942 30.578 27.7313 32.8358C26.5533 35.0936 24.8682 36.8932 22.6758 38.2348C20.4835 39.5437 17.8495 40.1981 14.7737 40.1981ZM14.7737 33.7193C12.9085 33.7193 11.3543 33.343 10.1109 32.5904C8.90019 31.8378 7.98399 30.8398 7.36229 29.5964C6.7733 28.3203 6.47881 26.9133 6.47881 25.3754V24.3446H7.95127V25.3754C7.95127 27.2732 8.49117 28.8929 9.57097 30.2345C10.6508 31.576 12.385 32.2468 14.7737 32.2468C17.1623 32.2468 18.8965 31.576 19.9763 30.2345C21.0561 28.8929 21.596 27.2732 21.596 25.3754V0H23.0685V25.3754C23.0685 26.9133 22.7577 28.3203 22.1359 29.5964C21.547 30.8398 20.6308 31.8378 19.3874 32.5904C18.1767 33.343 16.6388 33.7193 14.7737 33.7193ZM14.7737 36.9587C12.3196 36.9587 10.2254 36.4351 8.49117 35.3881C6.78967 34.341 5.48081 32.9503 4.56462 31.2161C3.68114 29.4492 3.23941 27.5022 3.23941 25.3754V24.3446H4.71186V25.3754C4.71186 27.2405 5.08816 28.942 5.84075 30.4799C6.62606 31.9851 7.7713 33.1957 9.27648 34.1119C10.7817 35.0281 12.6141 35.4862 14.7737 35.4862C16.966 35.4862 18.7984 35.0281 20.2708 34.1119C21.776 33.1957 22.9049 31.9851 23.6575 30.4799C24.4428 28.942 24.8355 27.2405 24.8355 25.3754V0H26.3079V25.3754C26.3079 27.5022 25.8498 29.4492 24.9336 31.2161C24.0501 32.9503 22.7413 34.341 21.0071 35.3881C19.3056 36.4351 17.2278 36.9587 14.7737 36.9587Z" fill="#3D6666"/>
<path d="M40.9259 39.4619V0H42.3983V39.4619H40.9259ZM34.4471 39.4619V0H35.9195V39.4619H34.4471ZM37.6865 39.4619V0H39.1589V39.4619H37.6865Z" fill="#3D6666"/>
<path d="M53.7715 39.4619V0H55.244V39.4619H53.7715ZM47.2927 39.4619V0H48.7652V39.4619H47.2927ZM50.5321 39.4619V0H52.0046V39.4619H50.5321ZM85.5275 39.4619V0H87V39.4619H85.5275ZM79.0487 39.4619V0H80.5212V39.4619H79.0487ZM82.2881 39.4619V0H83.7606V39.4619H82.2881ZM68.9869 16.6879L68.1035 15.3626L77.2818 2.06144V4.66278L68.9869 16.6879ZM70.9502 25.179L57.0109 5.25177V2.74859L71.8828 23.9029L70.9502 25.179ZM70.9993 19.5346L70.1158 18.2094L77.2818 8.00035V10.5526L70.9993 19.5346ZM68.9869 28.0749L57.0109 10.9943V8.39301L69.8704 26.7496L68.9869 28.0749ZM72.9626 22.3323L72.0791 21.0561L77.2818 13.6448V16.197L72.9626 22.3323ZM67.0237 30.8725L57.0109 16.6388V14.0374L67.9071 29.5964L67.0237 30.8725Z" fill="#3D6666"/>
</svg>
